<?xml version="1.0" encoding="UTF-8"?>
<svg id="Layer_2" data-name="Layer 2" xmlns="http://www.w3.org/2000/svg" viewBox="0 0 29.63 29.63">
  <defs>
    <style>
      .cls-1 {
        fill: #007c00;
      }

      .cls-2 {
        fill: #ff6700;
      }

      .cls-3 {
        fill: #2d2a26;
      }

      .cls-4 {
        fill: #f40000;
      }

      .cls-5 {
        fill: #ffe400;
      }

      .cls-6 {
        fill: #1c1b19;
      }
    </style>
  </defs>
  <g id="Design_01_-_Dieline" data-name="Design 01 - Dieline">
    <g id="Icons">
      <g id="Real_fruit_icon" data-name="Real fruit icon">
        <circle class="cls-5" cx="14.82" cy="14.82" r="14.82"/>
        <path class="cls-3" d="M5.08,22.25c-1.58-2.06-2.53-4.64-2.53-7.43,0-6.76,5.5-12.26,12.26-12.26s12.27,5.5,12.27,12.26c0,2.8-.95,5.39-2.54,7.45v.41c1.75-2.15,2.81-4.88,2.81-7.86,0-6.91-5.62-12.53-12.53-12.53S2.28,7.91,2.28,14.82c0,2.97,1.05,5.69,2.79,7.84v-.41Z"/>
        <g id="orange">
          <circle class="cls-2" cx="10.61" cy="15.46" r="5.78"/>
          <path class="cls-1" d="M13.54,7.38s-3.86-.08-4.63,4.19c0,0,3.71.48,4.63-4.19Z"/>
        </g>
        <g id="strawberry">
          <path class="cls-4" d="M22.15,13.12c.27-.04.58-.06.9-.03,1.54.1,2.58,1.61,2.28,3.12-.41,2.08-1.65,5.27-5.38,4.93-.26-.02-.51-.12-.71-.29-.12-.11-.31-.22-.56-.2-.36.02-.73-.02-1.02-.24-.88-.68-2.37-2.41-1.7-6.03.35-1.89,2.46-3.04,4.14-2.09.16.09.31.19.45.32.44.39,1.02.59,1.6.52Z"/>
          <path class="cls-1" d="M23.66,11.53s-2.16-.33-2.9,2c0,0,2.04.54,2.9-2Z"/>
          <path class="cls-1" d="M19.95,10.15s-1.06,1.9.87,3.42c0,0,1.22-1.73-.87-3.42Z"/>
        </g>
        <g>
          <path class="cls-6" d="M7.26,22.69c0,.05-.01.09-.03.12-.02.03-.05.05-.08.06-.03.02-.05.04-.08.06-.02.02-.03.06-.03.1v.5l.48-.47s.03-.03.05-.05c.02-.02.03-.04.03-.06,0-.02,0-.03-.03-.04-.02-.01-.04-.03-.07-.04-.03-.02-.05-.04-.07-.07-.02-.03-.03-.06-.03-.11,0-.06.02-.1.05-.13.03-.03.08-.04.14-.04h.65c.06,0,.1.01.14.04.03.03.05.07.05.13,0,.05-.02.09-.06.12-.04.03-.08.05-.12.07-.04.02-.08.05-.11.08-.04.03-.07.06-.11.09l-.27.25.57.89s.06.07.09.1.06.05.08.08c.02.03.03.07.03.13s-.02.1-.05.13c-.03.03-.08.04-.14.04h-.82c-.06,0-.1-.01-.14-.04-.04-.03-.05-.07-.05-.13,0-.05.01-.08.03-.11.02-.03.04-.05.06-.07.02-.02.03-.04.03-.06,0-.02,0-.03,0-.04,0-.01-.01-.03-.02-.04l-.22-.38-.17.16v.21s0,.08.02.11.04.04.06.06c.02.02.04.03.06.06.02.02.02.06.02.11,0,.06-.02.1-.05.13-.04.03-.08.04-.14.04h-.78c-.06,0-.1-.01-.14-.04-.03-.03-.05-.07-.05-.13,0-.05.01-.09.03-.12.02-.03.05-.05.08-.06.03-.02.05-.04.08-.06.02-.02.03-.05.03-.1v-1.14s-.01-.08-.03-.1-.05-.04-.08-.06c-.03-.02-.05-.04-.08-.06-.02-.03-.03-.07-.03-.12,0-.06.02-.1.05-.13.03-.03.08-.04.14-.04h.83c.06,0,.1.01.14.04.03.03.05.07.05.13Z"/>
          <path class="cls-6" d="M8.71,22.69c0-.06.02-.1.05-.13.04-.03.08-.04.14-.04h1.04s.06,0,.11,0c.05,0,.09-.01.11-.02.02,0,.05,0,.07-.01.02,0,.05-.01.07-.01.07,0,.12.02.16.06.04.04.06.09.08.14.02.06.03.11.05.17.01.04.02.08.04.12.02.04.02.09.02.13,0,.05-.02.09-.06.11-.04.02-.08.04-.13.04s-.08-.01-.1-.03-.05-.05-.07-.09c-.03-.06-.06-.11-.09-.15-.03-.04-.06-.06-.1-.07s-.1-.02-.17-.02h-.24v.57h.12s.08-.01.1-.04c.02-.02.03-.05.04-.09s.02-.06.05-.09c.02-.02.06-.04.11-.04.04,0,.08.01.1.04s.04.06.05.1l.1.4s0,.02,0,.03c0,.01,0,.02,0,.04,0,.05-.02.08-.05.11-.03.03-.07.04-.11.04-.03,0-.06,0-.08-.02-.02-.02-.04-.04-.06-.06-.03-.03-.05-.06-.07-.07-.02-.01-.04-.02-.06-.03-.02,0-.06,0-.1,0h-.15v.32c0,.08.02.14.07.19.04.05.11.07.19.07s.15,0,.19-.02c.05-.01.08-.04.11-.08.03-.04.06-.09.1-.16.02-.04.04-.07.06-.09s.06-.03.1-.03c.05,0,.09.01.13.04.04.03.06.07.06.12,0,.02,0,.04-.01.07l-.09.31c-.02.07-.05.13-.08.18s-.09.07-.17.07c-.03,0-.06,0-.1-.01s-.06-.02-.09-.02c-.06-.01-.11-.02-.17-.02h-1.1c-.06,0-.1-.01-.14-.04-.04-.03-.05-.07-.05-.13,0-.05.01-.09.03-.12s.05-.05.08-.06c.03-.02.06-.04.08-.06s.03-.06.03-.1v-1.14s-.01-.08-.03-.1-.05-.04-.08-.06c-.03-.02-.05-.04-.08-.06s-.03-.07-.03-.12Z"/>
          <path class="cls-6" d="M12.08,22.69c0,.05-.01.09-.03.12-.02.03-.05.05-.07.06-.03.02-.05.04-.08.06-.02.02-.03.06-.03.1v1.16s0,.08.03.1c.02.03.05.04.09.04h.08c.08,0,.14-.02.18-.05.04-.03.08-.07.1-.12.02-.05.05-.09.06-.14.02-.05.04-.09.07-.12.03-.03.07-.05.12-.05s.1.02.13.04c.04.03.05.07.05.13,0,.02,0,.05,0,.07l-.11.39c-.02.07-.05.13-.08.18s-.09.07-.17.07c-.03,0-.06,0-.1-.01s-.06-.02-.09-.02c-.03,0-.06-.01-.08-.01-.03,0-.06,0-.09,0h-.99c-.06,0-.1-.01-.14-.04-.03-.03-.05-.07-.05-.13,0-.05.01-.09.03-.12.02-.03.05-.05.08-.06.03-.02.05-.04.07-.06.02-.02.03-.06.03-.1v-1.14s-.01-.08-.03-.1c-.02-.02-.05-.04-.07-.06-.03-.02-.05-.04-.08-.06-.02-.03-.03-.07-.03-.12,0-.06.02-.1.05-.13.03-.03.08-.04.14-.04h.82c.06,0,.1.01.14.04.03.03.05.07.05.13Z"/>
          <path class="cls-6" d="M14.04,22.46c.22,0,.42.05.59.14.17.09.3.22.4.39s.14.36.14.59-.05.43-.14.6c-.09.18-.22.31-.39.41-.17.1-.37.15-.6.15s-.44-.05-.61-.14c-.17-.1-.3-.23-.39-.41-.09-.17-.14-.38-.14-.61s.05-.42.15-.59c.1-.17.23-.3.4-.4.17-.1.37-.14.59-.14ZM14.38,24.06c0-.16-.02-.32-.05-.48,0-.04-.02-.09-.04-.16-.02-.07-.04-.13-.07-.21-.03-.07-.06-.14-.1-.21-.04-.07-.08-.12-.12-.16-.04-.04-.09-.06-.14-.06s-.09.02-.11.07c-.02.04-.04.09-.04.15,0,.06,0,.1,0,.14,0,.13.01.26.03.39.02.13.05.25.1.38.01.04.03.08.06.14.03.06.06.11.09.17.04.06.07.1.11.14.04.04.08.06.13.06.05,0,.09-.02.11-.06.02-.04.04-.09.04-.15,0-.06,0-.1,0-.14Z"/>
          <path class="cls-6" d="M17.79,22.69c0-.06.02-.1.05-.13.03-.03.08-.04.14-.04h.38c.06,0,.1.01.14.04.03.03.05.07.05.13,0,.05-.01.08-.03.1-.02.02-.05.04-.08.07-.04.02-.06.05-.08.07-.02.02-.03.04-.04.07-.01.02-.02.06-.03.1l-.33,1.15c-.03.09-.04.19-.04.28,0,.04-.01.08-.03.11s-.06.05-.1.05h-.5s-.08-.02-.1-.05-.03-.07-.03-.11c0-.03,0-.07,0-.1,0-.03-.01-.06-.02-.09l-.22-.74-.21.65s-.02.07-.03.11c0,.04-.01.07-.01.11,0,.03,0,.07,0,.1,0,.03-.02.06-.04.08-.02.02-.05.03-.1.03h-.5s-.08-.02-.1-.05c-.02-.03-.03-.07-.03-.11,0-.06-.01-.13-.03-.19l-.4-1.27s-.03-.08-.04-.1c-.02-.02-.04-.04-.08-.08-.04-.03-.07-.06-.09-.08-.02-.02-.03-.06-.03-.11,0-.06.02-.1.05-.13.03-.03.08-.04.14-.04h.79c.06,0,.1.01.14.04.03.03.05.07.05.13,0,.04,0,.07-.02.09s-.03.04-.05.05c-.02.01-.04.03-.05.05-.02.02-.02.05-.02.09,0,.02,0,.04,0,.06,0,.02,0,.04.02.06l.23.75.27-.85s-.02-.06-.03-.08c-.01-.02-.04-.05-.08-.08-.03-.02-.05-.04-.07-.06-.01-.02-.02-.05-.02-.09,0-.06.02-.1.05-.13.03-.03.08-.04.13-.04h.73c.06,0,.1.01.14.04.03.03.05.07.05.13,0,.04,0,.07-.02.09-.02.02-.03.04-.05.06-.02.02-.04.03-.05.05-.02.02-.02.05-.02.09,0,.02,0,.04,0,.06,0,.02,0,.04.01.06l.22.76.24-.82s0-.03,0-.04c0-.01,0-.03,0-.04,0-.04-.01-.07-.04-.09s-.05-.05-.07-.07c-.02-.03-.04-.06-.04-.11Z"/>
          <path class="cls-6" d="M19.48,24.51c0,.06-.02.1-.05.13-.04.03-.08.04-.14.04h-.47c-.06,0-.1-.01-.14-.04-.04-.03-.05-.07-.05-.13,0-.06.01-.1.04-.12.03-.03.05-.05.09-.06.03-.02.06-.04.09-.06.02-.02.04-.06.04-.11v-.94c0-.07,0-.12-.03-.16-.02-.03-.05-.08-.1-.12-.03-.03-.07-.07-.11-.12-.04-.05-.06-.09-.06-.15s.02-.09.05-.11c.03-.03.07-.04.12-.04h.49s.08,0,.11,0c.03,0,.05.02.07.03s.05.04.08.08l.97,1.11v-.7c0-.05-.01-.09-.04-.11s-.05-.04-.09-.06-.06-.04-.09-.06c-.02-.03-.04-.07-.04-.12,0-.06.02-.1.05-.13.04-.03.08-.04.14-.04h.47c.06,0,.1.01.14.04.04.03.05.07.05.13,0,.06-.02.11-.05.13s-.07.05-.12.08c-.03.02-.06.04-.07.06-.01.02-.02.05-.02.09v.91s0,.1.01.15c0,.05.02.1.05.14.03.04.05.08.08.13.03.05.04.09.04.14s-.02.09-.05.12-.07.05-.12.05h-.53s-.08-.01-.11-.03c-.03-.02-.04-.05-.04-.1,0-.03-.01-.06-.04-.1-.03-.04-.05-.06-.07-.09l-.8-.93v.72s0,.07.02.09c.01.02.03.04.07.06.05.03.09.06.12.08s.05.07.05.13Z"/>
          <path class="cls-6" d="M21.99,24.51c0,.06-.02.1-.05.13-.03.03-.08.04-.14.04h-.45c-.06,0-.1-.01-.14-.04-.04-.03-.05-.07-.05-.13,0-.05.01-.09.04-.11.03-.02.06-.05.09-.08.03-.03.05-.06.07-.09.01-.03.03-.07.04-.1l.35-1.06s.01-.04.02-.05c0-.02,0-.04,0-.06,0-.02,0-.04-.02-.06s-.03-.03-.06-.04c-.02-.01-.04-.03-.06-.06s-.02-.06-.02-.1c0-.06.02-.1.05-.13.04-.03.08-.04.14-.04h1.12c.06,0,.1.01.14.04.04.03.05.07.05.13,0,.04,0,.08-.02.1s-.03.04-.05.06c-.02.01-.04.03-.05.04-.01.01-.02.03-.02.06,0,.02,0,.04,0,.05,0,.02,0,.03.01.05l.32.94s.03.09.04.13c0,.04.02.08.04.11.02.03.05.07.1.1.04.03.06.05.08.07.01.02.02.06.02.1,0,.06-.02.1-.05.13-.03.03-.08.04-.14.04h-.8c-.06,0-.1-.01-.14-.04-.04-.03-.05-.07-.05-.13,0-.04,0-.08.03-.1s.04-.04.06-.06.05-.03.06-.04c.02-.01.03-.03.03-.04,0-.01,0-.03,0-.04,0-.01,0-.03-.01-.04l-.05-.16h-.73v.02s-.03.05-.04.08c-.01.03-.02.06-.02.08,0,.03.01.05.04.07.02.02.05.04.09.05.03.02.06.04.09.06s.04.06.04.11ZM21.92,23.68h.51l-.25-.78-.26.78Z"/>
          <path class="cls-6" d="M10.04,25.89c0-.06.02-.1.05-.13.04-.03.08-.04.14-.04h1.01s.06,0,.09,0,.06,0,.09-.01l.09-.02s.06-.01.09-.01c.06,0,.1.01.13.03.03.02.05.05.07.09.02.04.03.08.05.13h0s0,.01,0,.02c0,0,0,.01,0,.01.01.03.02.07.04.12s.03.09.04.14c.01.05.02.08.02.12,0,.05-.02.08-.06.11s-.08.04-.12.04c-.04,0-.08-.01-.1-.03-.02-.02-.04-.05-.06-.09-.04-.07-.07-.12-.09-.16-.03-.04-.06-.07-.1-.09-.04-.02-.1-.03-.19-.03h-.2v.65h.16c.05,0,.09-.01.11-.04.02-.02.04-.05.04-.09.01-.03.02-.06.04-.09.02-.02.06-.04.11-.04.08,0,.13.04.16.13l.1.4s0,.02,0,.03c0,.01,0,.02,0,.04,0,.04-.02.08-.05.11-.03.03-.07.04-.11.04-.03,0-.06,0-.08-.02-.02-.02-.04-.03-.06-.06-.03-.04-.06-.06-.08-.07s-.04-.02-.07-.03c-.02,0-.06,0-.11,0h-.19v.33c0,.05.01.09.04.11.03.02.06.04.09.05.03.01.07.03.09.06.03.03.04.07.04.13s-.02.1-.05.13c-.03.03-.08.04-.14.04h-.88c-.06,0-.1-.01-.14-.04-.04-.03-.05-.07-.05-.13,0-.05.01-.09.03-.12s.05-.05.08-.07c.03-.02.06-.04.08-.06s.03-.05.03-.1v-1.14s-.01-.08-.03-.1-.05-.04-.08-.06-.06-.04-.08-.06c-.02-.03-.03-.07-.03-.12Z"/>
          <path class="cls-6" d="M12.71,27.71c0,.06-.02.1-.05.13-.03.03-.08.04-.14.04h-.45c-.06,0-.1-.01-.14-.04-.04-.03-.05-.07-.05-.13,0-.05.01-.09.04-.11.03-.02.06-.05.09-.08.03-.03.05-.06.07-.09.01-.03.03-.07.04-.1l.35-1.06s.01-.04.02-.05c0-.02,0-.04,0-.06,0-.02,0-.04-.02-.06s-.03-.03-.06-.04c-.02-.01-.04-.03-.06-.06s-.02-.06-.02-.1c0-.06.02-.1.05-.13.04-.03.08-.04.14-.04h1.12c.06,0,.1.01.14.04.04.03.05.07.05.13,0,.04,0,.08-.02.1s-.03.04-.05.06c-.02.01-.04.03-.05.04-.01.01-.02.03-.02.06,0,.02,0,.04,0,.05,0,.02,0,.03.01.05l.32.94s.03.09.04.13c0,.04.02.08.04.11.02.03.05.07.1.1.04.03.06.05.08.07.01.02.02.06.02.1,0,.06-.02.1-.05.13-.03.03-.08.04-.14.04h-.8c-.06,0-.1-.01-.14-.04-.04-.03-.05-.07-.05-.13,0-.04,0-.08.03-.1s.04-.04.06-.06.05-.03.06-.04c.02-.01.03-.03.03-.04,0-.01,0-.03,0-.04,0-.01,0-.03-.01-.04l-.05-.16h-.73v.02s-.03.05-.04.08c-.01.03-.02.06-.02.08,0,.03.01.05.04.07.02.02.05.04.09.05.03.02.06.04.09.06s.04.06.04.11ZM12.63,26.88h.51l-.25-.78-.26.78Z"/>
          <path class="cls-6" d="M16.73,26.48c0,.12-.03.22-.09.29-.06.08-.13.14-.22.18l.24.45s.05.08.08.1.06.05.09.08c.02.03.04.07.04.13s-.02.1-.05.13c-.03.03-.08.04-.14.04h-.67c-.12,0-.18-.06-.18-.17,0-.04.02-.08.05-.12,0-.01,0-.02,0-.03,0,0,0-.02,0-.03,0-.01,0-.04-.02-.08-.02-.04-.03-.09-.06-.14-.02-.05-.04-.1-.06-.15-.01,0-.02,0-.04,0-.06,0-.13,0-.19-.02v.24s0,.05,0,.06c0,.01.01.03.03.05.03.04.06.07.08.1s.04.07.04.13c0,.06-.02.1-.05.13-.03.03-.08.04-.14.04h-.77c-.06,0-.1-.01-.14-.04-.03-.03-.05-.07-.05-.13,0-.05.01-.09.03-.12s.05-.05.08-.06c.03-.02.05-.04.07-.06s.03-.06.03-.1v-1.14s-.01-.08-.03-.1-.05-.04-.07-.06c-.03-.02-.05-.04-.08-.06s-.03-.06-.03-.12c0-.06.02-.1.05-.13.03-.03.08-.04.14-.04h.87c.1,0,.2,0,.3.02s.21.04.31.07c.1.03.19.08.27.14.08.06.15.13.19.22s.07.19.07.31ZM15.51,26.04v.83s.05,0,.08,0c.13,0,.22-.04.27-.11.05-.07.08-.17.08-.29s-.04-.22-.11-.31c-.07-.08-.17-.13-.3-.13h-.03Z"/>
          <path class="cls-6" d="M17.62,27.71c0,.06-.02.1-.05.13-.03.03-.08.04-.14.04h-.35c-.06,0-.1-.01-.14-.04-.03-.03-.05-.07-.05-.13,0-.05,0-.09.03-.11.02-.02.04-.04.07-.06s.05-.04.07-.06c.02-.02.03-.06.04-.11l.08-1.14h0c0-.05-.01-.08-.03-.1-.02-.02-.04-.04-.07-.06-.03-.02-.05-.04-.07-.06-.02-.03-.03-.06-.03-.11,0-.06.02-.1.05-.13.03-.03.08-.04.13-.04h.55c.1,0,.18.03.24.09.05.06.09.14.12.22l.25.75.25-.75c.03-.09.07-.17.12-.23.05-.06.13-.09.24-.09h.56c.06,0,.1.01.14.04.03.03.05.07.05.13,0,.05-.01.09-.03.11-.02.03-.04.05-.07.07-.03.02-.05.04-.07.06-.02.02-.03.05-.03.08h0s.07,1.16.07,1.16c0,.05.01.09.03.11.02.02.04.04.06.05s.04.03.06.05c.02.02.03.06.03.11,0,.06-.02.1-.05.13-.03.03-.08.05-.14.05h-.78c-.06,0-.1-.01-.14-.04-.03-.03-.05-.07-.05-.13,0-.05.01-.08.03-.11.02-.03.04-.05.07-.07.03-.02.05-.04.07-.06.02-.02.03-.04.03-.08h0s-.05-.75-.05-.75l-.32.92s-.03.09-.06.13c-.02.04-.05.08-.09.11-.04.03-.08.04-.14.04-.07,0-.12-.01-.16-.04-.03-.02-.07-.07-.1-.13-.02-.04-.04-.09-.06-.13l-.32-.92-.05.74h0s0,.08.03.1c.02.02.04.04.06.06.02.02.04.04.06.07.02.03.03.06.03.1Z"/>
        </g>
        <g>
          <path class="cls-6" d="M11.56,5.25v1.14s.01.08.03.1c.02.02.04.04.07.06.03.02.05.04.07.06.02.03.03.07.03.12,0,.06-.02.1-.05.13-.03.03-.08.04-.14.04h-.81c-.06,0-.1-.01-.14-.04-.03-.03-.05-.07-.05-.13,0-.05.01-.09.03-.12.02-.03.04-.05.07-.06s.05-.04.07-.06c.02-.02.03-.06.03-.1v-1.14s-.01-.08-.03-.1c-.02-.02-.04-.04-.07-.06s-.05-.04-.07-.06c-.02-.03-.03-.07-.03-.12,0-.06.02-.1.05-.13.03-.03.08-.04.14-.04h.81c.06,0,.1.01.14.04.03.03.05.07.05.13,0,.05-.01.09-.03.12-.02.03-.05.05-.07.06-.03.02-.05.04-.07.06-.02.02-.03.06-.03.1Z"/>
          <path class="cls-6" d="M13.45,4.55s.08.01.1.04.04.06.04.1v1.73s0,.06,0,.09c0,.03.02.05.04.08.03.03.05.05.07.07.02.02.03.05.03.09s-.01.08-.04.11c-.03.02-.07.04-.11.04h-.69s-.08-.01-.11-.04c-.03-.02-.04-.06-.04-.11,0-.04,0-.07.02-.09.01-.02.03-.03.05-.05.02-.01.04-.03.05-.06s.02-.06.02-.12v-1.27s0-.09-.02-.11c-.02-.02-.04-.04-.06-.05-.02-.01-.04-.03-.06-.04s-.03-.04-.03-.08c0-.04.01-.07.04-.1.03-.02.06-.04.09-.05l.35-.14s.08-.03.12-.04c.04-.01.08-.02.13-.02Z"/>
          <path class="cls-6" d="M14.78,5.25c.17,0,.32.04.45.11.13.07.23.17.3.3.07.13.11.28.11.45s-.04.32-.12.44-.19.22-.32.29-.28.1-.45.1c-.17,0-.32-.04-.45-.11-.13-.07-.23-.17-.3-.3-.07-.13-.11-.28-.11-.45s.04-.32.12-.44c.08-.12.19-.22.32-.29.14-.07.28-.1.45-.1ZM14.87,6.6s.04-.01.06-.04c.01-.03.02-.06.02-.09s0-.06,0-.08c0-.06,0-.12-.01-.18,0-.06-.02-.12-.04-.17,0-.02-.02-.06-.03-.11-.01-.05-.03-.1-.05-.15-.02-.05-.04-.1-.07-.14s-.05-.06-.08-.06c-.02,0-.04.01-.05.04-.01.03-.02.06-.02.09,0,.03,0,.06,0,.07,0,.03,0,.07.01.14,0,.06.02.13.04.21.02.08.04.15.06.22.02.07.05.13.08.17s.06.07.09.07Z"/>
          <path class="cls-6" d="M16.78,6.93h-.24c-.07,0-.12-.02-.16-.06-.04-.04-.07-.09-.1-.15l-.44-1s-.03-.06-.04-.08c-.01-.02-.03-.04-.07-.07-.02-.02-.04-.04-.06-.06-.01-.02-.02-.04-.02-.08,0-.05.02-.08.05-.11s.07-.04.11-.04h.84s.08.01.1.04.04.06.04.1c0,.04,0,.07-.03.09-.02.02-.04.04-.07.05-.03.01-.05.03-.07.05-.02.02-.03.05-.03.08,0,.02,0,.05,0,.07,0,.02.01.04.02.06l.24.61.23-.59s.02-.05.02-.07c0-.02,0-.05,0-.07,0-.04,0-.07-.03-.09-.02-.02-.04-.04-.07-.05-.03-.01-.05-.03-.07-.05-.02-.02-.03-.05-.03-.09,0-.05.01-.08.04-.11s.07-.04.11-.04h.43s.08.01.11.03c.03.02.04.06.04.11,0,.04,0,.07-.02.08-.01.02-.03.04-.06.06-.04.04-.07.07-.08.1s-.03.07-.05.12c-.07.16-.13.32-.2.47-.07.16-.14.32-.21.47-.03.06-.06.1-.1.14-.04.03-.09.05-.16.05Z"/>
          <path class="cls-6" d="M19.2,5.87c0,.09-.03.16-.08.21s-.13.07-.22.07h-.63c.02.09.07.16.13.23s.15.09.27.09c.05,0,.09,0,.14-.03.05-.02.09-.04.13-.07s.08-.05.1-.07c.03-.02.05-.03.07-.03.03,0,.05.01.07.03.01.02.02.05.02.07,0,.09-.02.18-.07.25-.04.07-.1.13-.17.18s-.15.08-.24.11-.17.04-.25.04c-.16,0-.31-.03-.43-.1-.12-.07-.22-.16-.29-.29-.07-.12-.11-.27-.11-.43,0-.18.03-.33.1-.46.07-.13.17-.23.29-.31s.28-.11.46-.11c.12,0,.24.02.35.07.11.05.2.12.26.21.07.09.1.2.1.34ZM18.24,5.91v.03h.16s.07,0,.08-.03.02-.05.02-.08c0-.02,0-.06,0-.1,0-.04-.02-.08-.04-.11-.02-.03-.04-.05-.08-.05-.03,0-.06.01-.08.04-.02.03-.03.06-.04.1s-.02.08-.02.11c0,.04,0,.07,0,.09Z"/>
          <path class="cls-6" d="M11.15,8.38v.72c0,.07.01.12.03.14.02.02.06.03.13.04.06,0,.1.02.13.03.03.01.05.05.05.12,0,.05-.01.08-.04.11-.03.02-.07.04-.11.04h-.96s-.08-.01-.11-.04c-.03-.02-.04-.06-.04-.1,0-.05.01-.09.03-.11.02-.02.05-.04.08-.05.03-.01.05-.03.08-.05s.03-.07.03-.13v-.6s-.01-.07-.04-.09c-.03-.02-.06-.04-.09-.05-.03-.01-.06-.03-.09-.06-.03-.02-.04-.06-.04-.11,0-.04.01-.08.04-.1.03-.02.06-.03.1-.03h.12v-.02s-.02-.03-.05-.05-.06-.06-.09-.1-.05-.08-.05-.13c0-.09.02-.17.06-.24.04-.06.1-.12.16-.15s.14-.07.22-.08c.08-.02.16-.03.24-.03.07,0,.14,0,.22.02.08.02.15.04.21.08.07.04.12.08.16.14.04.06.06.13.06.21s-.02.15-.07.2c-.05.05-.11.08-.2.08-.09,0-.16-.03-.22-.08-.05-.05-.08-.13-.08-.22,0-.03,0-.06,0-.09s-.01-.06-.03-.08c-.02-.02-.05-.03-.09-.03s-.07.01-.09.04c-.01.03-.02.06-.02.1,0,.04.02.08.04.11.03.03.06.06.1.1s.07.06.1.09c.03.03.04.07.04.1h0s.29.01.29.01c.04,0,.07,0,.1.03.03.02.04.05.04.09,0,.06-.02.11-.06.14-.04.03-.09.05-.15.06s-.11.01-.16.01Z"/>
          <path class="cls-6" d="M12.47,8.64v.46c0,.06,0,.1.02.12.01.02.05.04.11.05.05.01.1.02.13.04.03.01.05.05.05.12,0,.05-.01.08-.04.11-.03.02-.06.04-.11.04h-.82s-.08-.01-.11-.04c-.03-.02-.04-.06-.04-.11,0-.04,0-.07.02-.08.01-.02.03-.04.05-.05s.03-.03.05-.06c.01-.02.02-.06.02-.11v-.57s0-.08-.02-.11-.03-.04-.05-.06-.04-.03-.05-.05c-.02-.02-.02-.04-.02-.08,0-.04.01-.07.04-.1s.06-.04.09-.06l.39-.15s.05-.02.08-.03c.03,0,.05-.01.08-.01.04,0,.06.01.08.04.02.03.03.06.04.1,0,.04.01.07.01.09,0,.02,0,.04,0,.06,0,.02,0,.04,0,.06.03-.1.08-.18.15-.24.07-.07.16-.1.28-.1.08,0,.15.02.2.06.05.04.08.09.1.16.02.06.03.13.03.21,0,.07,0,.13-.03.2s-.05.11-.09.16c-.04.04-.11.06-.19.06-.09,0-.15-.01-.19-.04-.04-.03-.07-.06-.08-.1-.01-.04-.02-.08-.02-.12,0-.04,0-.07-.01-.1,0-.03-.02-.04-.06-.04-.03,0-.05.02-.06.06s-.02.08-.02.13c0,.04,0,.08,0,.1Z"/>
          <path class="cls-6" d="M13.92,9.61c-.1,0-.18-.03-.25-.08-.07-.05-.12-.12-.15-.2s-.05-.17-.05-.26v-.53s0-.07,0-.08c0-.02-.02-.04-.05-.06-.02-.02-.04-.04-.06-.06-.02-.02-.03-.04-.03-.08,0-.04.01-.07.04-.1.03-.02.06-.04.09-.06l.34-.14s.08-.03.12-.04c.04-.01.08-.02.13-.02.04,0,.08.01.1.04.02.03.03.06.03.1v.85s0,.06.01.09c0,.03.02.06.04.08.02.02.05.04.09.04s.07,0,.1-.03c.03-.02.06-.04.08-.06v-.49s0-.07-.01-.09-.03-.04-.06-.06c-.02-.02-.04-.04-.06-.05-.02-.02-.03-.04-.03-.08,0-.04.01-.07.04-.1.03-.02.06-.04.09-.06l.34-.14s.08-.03.12-.04c.04-.01.08-.02.13-.02.04,0,.08.01.1.04.02.03.04.06.04.1v1.03s0,.06,0,.09.01.05.04.08c.03.03.05.05.07.07.02.02.03.05.03.09,0,.05-.01.08-.04.11-.03.02-.06.04-.11.04h-.36c-.08,0-.15-.03-.21-.09-.06-.06-.09-.13-.09-.21-.06.06-.12.11-.19.16-.07.05-.14.1-.21.13s-.14.05-.21.05Z"/>
          <path class="cls-6" d="M16.24,7.92s.08.01.1.04c.02.03.04.06.04.1v1.03s0,.06,0,.09c0,.03.01.06.04.08.03.03.05.05.07.07s.03.05.03.09-.01.08-.04.11c-.03.02-.07.04-.11.04h-.66s-.08-.01-.11-.04c-.03-.02-.04-.06-.04-.11s0-.08.03-.09c.02-.02.04-.04.07-.07.02-.02.03-.05.04-.08,0-.03,0-.06,0-.09v-.54s0-.04,0-.06c0-.02-.01-.04-.03-.06,0,0,0,0-.01-.01,0,0-.01,0-.02-.01-.02-.02-.04-.04-.06-.06-.02-.02-.03-.04-.03-.08,0-.04.01-.07.04-.1.03-.02.06-.04.09-.05l.34-.14s.08-.03.12-.04c.04-.01.08-.02.13-.02ZM16.01,7.91c-.07,0-.13,0-.2-.03-.07-.02-.12-.05-.17-.1-.05-.05-.07-.11-.07-.19s.02-.14.07-.19.1-.08.17-.1c.07-.02.13-.03.2-.03s.13,0,.2.03c.07.02.13.05.17.1s.07.11.07.19-.02.14-.07.19c-.05.05-.1.08-.17.1-.07.02-.14.03-.2.03Z"/>
          <path class="cls-6" d="M17.38,9.61c-.18,0-.32-.04-.42-.12-.1-.08-.15-.22-.15-.41v-.68s-.01-.08-.03-.1c-.02-.02-.04-.04-.07-.05-.03-.01-.05-.03-.07-.05-.02-.02-.03-.05-.03-.09s.01-.08.04-.1c.03-.02.07-.04.11-.04h.07s.06-.02.09-.05c.03-.03.06-.07.09-.11s.06-.09.1-.14c.03-.05.07-.08.11-.11.04-.03.08-.05.13-.05.05,0,.09.01.12.04s.04.07.04.12v.29h.35s.07,0,.1.03c.03.02.04.05.04.09,0,.06-.02.1-.06.13-.04.03-.08.05-.13.06-.05,0-.1.01-.15.01h-.16v.62c0,.05,0,.1.03.14.02.05.06.07.12.07.04,0,.08-.01.1-.04.03-.02.06-.05.08-.07.03-.02.05-.03.08-.03.03,0,.05.01.06.04.01.03.02.05.02.07,0,.1-.03.2-.1.27-.06.08-.14.14-.24.18s-.19.06-.29.06Z"/>
          <path class="cls-6" d="M18.86,8.18s-.07,0-.1.02c-.03.02-.04.04-.04.08,0,.03,0,.06.02.08.02.02.04.03.07.05.03.01.06.02.1.03.03,0,.07.01.1.02.1.02.19.06.27.11.08.05.15.11.2.19.05.08.08.17.08.28,0,.14-.03.26-.1.34-.06.08-.15.14-.26.18-.11.04-.22.05-.35.05-.03,0-.08,0-.13-.01s-.1-.02-.13-.03h0s-.03-.01-.05-.02c-.02,0-.04,0-.05,0-.03,0-.06.01-.08.04-.02.03-.05.04-.08.04-.04,0-.08-.01-.11-.04-.03-.03-.04-.06-.06-.1-.01-.04-.02-.08-.04-.11,0-.03-.02-.06-.02-.09,0-.03-.01-.06-.01-.09,0-.05.01-.1.04-.13.03-.03.07-.05.13-.05s.1.01.13.04c.04.02.07.05.09.09.03.03.06.07.08.1.03.04.06.06.1.09s.09.04.15.04c.04,0,.07-.01.1-.04s.03-.06.03-.1c0-.06-.02-.1-.05-.11s-.07-.03-.12-.04c-.09-.02-.17-.04-.26-.06s-.15-.06-.21-.1c-.06-.04-.11-.1-.15-.17-.04-.07-.05-.16-.05-.27,0-.13.03-.23.1-.31.07-.08.16-.14.27-.18.11-.04.22-.06.33-.06.04,0,.08,0,.13,0,.04,0,.08.01.12.02,0,0,.02,0,.04.01.02,0,.05.02.09.03.03,0,.06-.01.09-.04s.05-.04.09-.04c.04,0,.08.02.1.05.02.03.04.07.04.12,0,.04.02.08.02.11,0,.02,0,.05.01.07,0,.02,0,.05,0,.07,0,.04,0,.08-.03.12-.02.04-.05.06-.1.06s-.09-.02-.13-.05c-.04-.03-.08-.07-.11-.12-.04-.04-.08-.08-.13-.12-.05-.03-.11-.05-.18-.05Z"/>
        </g>
      </g>
    </g>
  </g>
</svg>